<svg xmlns="http://www.w3.org/2000/svg" xmlns:xlink="http://www.w3.org/1999/xlink" viewBox="0 0 600.15 250"><defs><style>.cls-1{fill:#4d6bfe;}.cls-2{fill:url(#未命名的渐变_189);}</style><linearGradient id="未命名的渐变_189" x1="358.78" y1="67.51" x2="237.85" y2="67.51" gradientTransform="matrix(-1, 0, 0, 1, 600.15, 0)" gradientUnits="userSpaceOnUse"><stop offset="0" stop-color="#94d8ff"/><stop offset="1" stop-color="#4d6bfe"/></linearGradient></defs><g id="图层_2" data-name="图层 2"><g id="图层_1-2" data-name="图层 1"><rect class="cls-1" x="313.58" y="7.93" width="21.13" height="21.13" rx="1.5" transform="translate(648.29 36.99) rotate(-180)"/><rect class="cls-1" x="358.49" y="67.51" width="8.22" height="8.22" rx="1" transform="translate(725.2 143.25) rotate(-180)"/><rect class="cls-1" x="305.95" y="34.34" width="8.22" height="8.22" rx="1" transform="translate(620.11 76.91) rotate(-180)"/><rect class="cls-1" x="321.8" y="37.28" width="4.7" height="4.7" rx="0.5" transform="translate(648.29 79.25) rotate(-180)"/><rect class="cls-1" x="305.36" y="16.73" width="4.7" height="4.7" rx="0.5" transform="translate(615.42 38.16) rotate(-180)"/><rect class="cls-1" x="337.65" y="70.74" width="4.7" height="4.7" rx="0.5" transform="translate(679.99 146.18) rotate(-180)"/><rect class="cls-1" x="333.54" y="94.81" width="4.7" height="4.7" rx="0.5" transform="translate(671.77 194.32) rotate(-180)"/><rect class="cls-1" x="305.95" y="103.62" width="5.87" height="5.87" rx="0.5" transform="translate(617.76 213.11) rotate(-180)"/><rect class="cls-1" x="341.17" y="78.96" width="18.79" height="18.79" rx="1.5" transform="translate(701.13 176.71) rotate(-180)"/><rect class="cls-1" x="315.93" y="102.44" width="21.13" height="21.13" rx="1.5" transform="translate(652.99 226.02) rotate(-180)"/><rect class="cls-1" x="311.82" y="48.43" width="15.85" height="15.85" rx="1.5" transform="translate(639.49 112.72) rotate(-180)"/><rect class="cls-1" x="340.58" y="22.02" width="11.15" height="11.15" rx="1" transform="translate(692.32 55.18) rotate(180)"/><rect class="cls-1" x="342.93" y="101.86" width="8.81" height="8.81" rx="1" transform="translate(694.67 212.52) rotate(-180)"/><path class="cls-1" d="M258.1,66.63H244.89a7,7,0,0,0-7,7.05V90.49A66.65,66.65,0,0,1,300.08,0h.58V24.67h-.58A42,42,0,0,0,258.1,66.63Z"/><path class="cls-1" d="M244.89,100.68h20a7.07,7.07,0,0,0,6.23-3.74,41.8,41.8,0,0,0,29,11.67l.58,0v24.67h-.58a66.62,66.62,0,0,1-57.53-33A7,7,0,0,0,244.89,100.68Z"/><path class="cls-2" d="M244.3,70.16H265l7.5-7.79a3,3,0,0,1,0-.43V40.8a2.94,2.94,0,0,1,2.94-2.93h21.13a2.94,2.94,0,0,1,2.94,2.93V61.94c0,.07,0,.15,0,.23l7.84,8h20.54l7.49-7.79a3,3,0,0,1,0-.43V40.8a2.93,2.93,0,0,1,2.94-2.93h21.13a2.94,2.94,0,0,1,2.94,2.93V61.94a2.94,2.94,0,0,1-2.94,2.93H338.64l-7.49,7.78a3.27,3.27,0,0,1,0,.44V94.22a2.93,2.93,0,0,1-2.93,2.94H307.12a2.93,2.93,0,0,1-2.93-2.94V73.09a1.79,1.79,0,0,1,0-.23l-7.85-8H275.83l-7.5,7.78a3.27,3.27,0,0,1,0,.44V94.22a2.93,2.93,0,0,1-2.93,2.94H244.3a2.93,2.93,0,0,1-2.93-2.94V73.09A2.93,2.93,0,0,1,244.3,70.16Z"/><path class="cls-1" d="M40.91,153.35c12.26,0,19.27,3.6,19.27,3.6V169s-6.6-3-17.42-3c-19.06,0-29.06,9.17-29.06,25.25s11,25.24,29.06,25.24a41.19,41.19,0,0,0,7.32-.72V191.27h13V225s-8.86,4.23-22.15,4.23C15.35,229.19,0,213.73,0,191.27S14.32,153.35,40.91,153.35Z"/><path class="cls-1" d="M85.82,175.81a19.18,19.18,0,0,1,3,10.51v41H76.45V175.81ZM105,174a13.52,13.52,0,0,1,4.12.51V185.7h-1.54c-9,0-14.74,4.33-15.67,5.36a16.93,16.93,0,0,1-.51-4C91.39,177.56,98,174,105,174Z"/><path class="cls-1" d="M146.72,227.33a15.09,15.09,0,0,1-2.06-4.43c-3.82,3.92-8.66,6.29-15.77,6.29-9.79,0-17.21-6.91-17.21-16.18,0-12.06,7.63-17.52,18.24-17.52h11.23s-1.13,10.72-9.89,10.72h-.62c-4.43,0-6.9,2.06-6.9,6.18,0,3.61,2.47,6.08,7.42,6.08a14.6,14.6,0,0,0,12.57-6.59v-17c0-8.14-5.26-10.2-11.54-10.2s-12.37,2.37-15.87,4.12V178.28c3.2-2.06,10.41-4.32,17.72-4.32,14.33,0,22.05,6.38,22.05,19v34.41Z"/><path class="cls-1" d="M205.34,201.57c0-11.33-5.05-16.9-12.36-16.9-3.82,0-7,.93-9.07,2.48a7.72,7.72,0,0,1-1-4.23c0-5.15,5.15-9,12.67-9,14.94,0,22.16,12.77,22.16,27.61,0,15.25-7.63,27.62-23.29,27.62-6.18,0-10.61-2-14.12-5.26V250H167.94V175.81h9.38a19.22,19.22,0,0,1,3,10.51v25.56a14,14,0,0,0,12.06,6.59C200.09,218.47,205.34,212.29,205.34,201.57Z"/><path class="cls-1" d="M240.37,150.05v77.28H228V150.05Zm33.8,43.17v34.11H261.8V195.39c0-6.91-3.19-10.72-9.48-10.72-5.46,0-8.34,2.37-8.34,2.37a5,5,0,0,1-1-4c.61-6.08,6.8-9.06,13-9.06C268.29,174,274.17,180.65,274.17,193.22Z"/><path class="cls-1" d="M301.16,227.33,282.51,155.2H295.9l14.43,57.71,13.39-44.83c6.6,1.75,9.58,10.62,6.8,19.58l-12.47,39.67Zm39.56-72.13L358,212.91l14.43-57.71h13.91l-18.65,72.13H349.79L327.23,155.2Z"/><path class="cls-1" d="M413.15,229.19c-17.1,0-26.17-11.75-26.17-27.62S396.05,174,413.15,174s26.17,11.74,26.17,27.61S430.26,229.19,413.15,229.19Zm0-44.52c-9.27,0-13.81,7.21-13.81,16.9s4.54,16.9,13.81,16.9S427,211.26,427,201.57,422.42,184.67,413.15,184.67Z"/><path class="cls-1" d="M459,175.81a19.18,19.18,0,0,1,3,10.51v41H449.62V175.81ZM478.16,174a13.63,13.63,0,0,1,4.13.51V185.7h-1.55c-9,0-14.74,4.33-15.66,5.36a16.63,16.63,0,0,1-.52-4C464.56,177.56,471.16,174,478.16,174Z"/><path class="cls-1" d="M535.55,175.91l-33.18,34.73v16.69H490V150.05h12.36v44.82l17.93-19Zm1.75,51.42H522.47l-7.11-10.51c-5.67-8.34,1.44-16.69,1.44-16.69Z"/><path class="cls-1" d="M580.88,153.35c12.27,0,19.27,3.6,19.27,3.6V169s-6.59-3-17.41-3c-17,0-27,9.17-27,25.25s11,25.24,27,25.24c10.82,0,17.41-3,17.41-3v12.06s-7,3.61-19.27,3.61c-23.49,0-38.84-15.46-38.84-37.92S556.36,153.35,580.88,153.35Z"/></g></g></svg>